<?xml version="1.0" encoding="UTF-8" standalone="no"?>
<svg
   xmlns:dc="http://purl.org/dc/elements/1.1/"
   xmlns:cc="http://creativecommons.org/ns#"
   xmlns:rdf="http://www.w3.org/1999/02/22-rdf-syntax-ns#"
   xmlns:svg="http://www.w3.org/2000/svg"
   xmlns="http://www.w3.org/2000/svg"
   viewBox="0 0 1333.3333 533.33331"
   height="533.33331"
   width="1333.3333"
   xml:space="preserve"
   id="svg2"
   version="1.1"><metadata
     id="metadata8"><rdf:RDF><cc:Work
         rdf:about=""><dc:format>image/svg+xml</dc:format><dc:type
           rdf:resource="http://purl.org/dc/dcmitype/StillImage" /></cc:Work></rdf:RDF></metadata><defs
     id="defs6"><clipPath
       id="clipPath18"
       clipPathUnits="userSpaceOnUse"><path
         id="path16"
         d="M 0,400 H 1000 V 0 H 0 Z" /></clipPath></defs><g
     transform="matrix(1.3333333,0,0,-1.3333333,0,533.33333)"
     id="g10"><g
       id="g12"><g
         clip-path="url(#clipPath18)"
         id="g14"><g
           transform="translate(647.3018,173.2119)"
           id="g20"><path
             id="path22"
             style="fill:#8a8b8e;fill-opacity:1;fill-rule:evenodd;stroke:none"
             d="m 0,0 c 0,-22.042 -0.096,-44.077 0.037,-66.107 0.072,-11.482 -3.603,-20.271 -16.566,-19.964 -12.428,0.295 -14.688,9.295 -14.627,19.884 0.199,37.253 0.433,74.512 0.023,111.758 -0.584,53.2 -31.01,98.819 -75.642,114.415 -74.698,26.102 -153.444,-28.825 -154.409,-108.041 -0.476,-38.819 -0.216,-77.649 0.145,-116.474 0.103,-11.356 -2.457,-20.934 -15.272,-21.06 -12.746,-0.127 -15.92,9.512 -15.933,20.74 -0.035,38.295 -0.487,76.596 -0.367,114.897 0.211,67.469 42.216,123.058 108.373,143.937 56,17.675 121.064,-6.897 158.654,-59.571 C -8.258,110.132 0.578,83.396 0.145,53.518 -0.121,35.681 0.098,17.837 0.098,0 Z" /></g><g
           transform="translate(484.4067,191.043)"
           id="g24"><path
             id="path26"
             style="fill:#101049;fill-opacity:1;fill-rule:evenodd;stroke:none"
             d="m 0,0 c 0,29.892 0.174,59.776 -0.091,89.649 -0.102,11.224 2.193,20.302 15.453,20.814 14.269,0.548 17.269,-8.994 17.263,-20.801 C 32.59,29.903 32.499,10.271 32.686,-49.487 32.721,-61.801 28.065,-71.107 15.331,-70.729 3.428,-70.367 -0.326,-61.264 -0.109,-49.5 0.44,-19.626 0.072,-29.885 0.072,0 Z" /></g><g
           transform="translate(976.3291,173.3984)"
           id="g28"><path
             id="path30"
             style="fill:#8a8b8e;fill-opacity:1;fill-rule:evenodd;stroke:none"
             d="m 0,0 c 0,-22.041 -0.098,-44.078 0.035,-66.107 0.072,-11.483 -3.601,-20.271 -16.566,-19.964 -12.428,0.296 -14.686,9.296 -14.625,19.885 0.199,37.252 0.433,74.511 0.023,111.758 -0.584,53.204 -31.012,98.819 -75.644,114.414 -74.698,26.102 -153.444,-28.822 -154.407,-108.041 -0.476,-38.818 -0.216,-77.649 0.145,-116.474 0.102,-11.356 -2.459,-20.934 -15.272,-21.06 -12.746,-0.127 -15.921,9.512 -15.933,20.74 -0.037,38.295 -0.488,76.596 -0.367,114.897 0.211,67.47 42.216,123.061 108.371,143.941 56,17.671 121.066,-6.901 158.656,-59.575 C -8.26,110.132 0.578,83.403 0.145,53.518 -0.121,35.681 0.096,17.838 0.096,0 Z" /></g><g
           transform="translate(813.4326,191.2305)"
           id="g32"><path
             id="path34"
             style="fill:#101049;fill-opacity:1;fill-rule:evenodd;stroke:none"
             d="m 0,0 c 0,29.891 0.176,59.775 -0.09,89.648 -0.103,11.224 2.192,20.305 15.451,20.817 14.272,0.548 17.272,-8.997 17.266,-20.798 C 32.59,29.902 32.5,10.271 32.686,-49.488 32.723,-61.801 28.066,-71.108 15.332,-70.729 3.428,-70.367 -0.326,-61.266 -0.107,-49.5 0.439,-19.627 0.072,-29.886 0.072,0 Z" /></g><g
           transform="translate(223.1807,375.4141)"
           id="g36"><path
             id="path38"
             style="fill:#8a8b8e;fill-opacity:1;fill-rule:evenodd;stroke:none"
             d="M 0,0 C 22.042,0 44.078,-0.096 66.107,0.037 77.59,0.109 86.379,-3.566 86.07,-16.529 85.775,-28.957 76.775,-31.216 66.186,-31.156 c -37.252,0.199 -74.511,0.433 -111.758,0.024 -53.199,-0.584 -98.819,-31.012 -114.414,-75.643 -26.103,-74.699 28.825,-153.445 108.041,-154.409 38.818,-0.475 77.649,-0.216 116.474,0.145 11.356,0.102 20.934,-2.457 21.06,-15.271 0.126,-12.747 -9.511,-15.921 -20.741,-15.933 -38.294,-0.036 -76.595,-0.488 -114.896,-0.368 -67.469,0.211 -123.058,42.216 -143.938,108.373 -17.674,55.999 6.897,121.064 59.572,158.654 24.282,17.325 51.018,26.162 80.896,25.729 C -35.681,-0.12 -17.838,0.097 0,0.097 Z" /></g><g
           transform="translate(205.3496,212.5186)"
           id="g40"><path
             id="path42"
             style="fill:#f9ad2d;fill-opacity:1;fill-rule:evenodd;stroke:none"
             d="m 0,0 c -29.892,0 -59.776,0.175 -89.649,-0.091 -11.224,-0.101 -20.302,2.194 -20.814,15.452 -0.548,14.271 8.994,17.271 20.801,17.265 C -29.903,32.59 -10.271,32.5 49.487,32.687 61.8,32.723 71.106,28.066 70.728,15.331 70.366,3.428 61.265,-0.325 49.499,-0.108 19.626,0.44 29.885,0.072 0,0.072 Z" /></g><g
           transform="translate(30.9526,24.5303)"
           id="g44"><path
             id="path46"
             style="fill:#8a8b8e;fill-opacity:1;fill-rule:nonzero;stroke:none"
             d="m 0,0 v 6.762 h 35.824 c 0.701,0 1.36,0.141 1.97,0.43 0.61,0.281 1.139,0.681 1.582,1.202 0.444,0.506 0.796,1.103 1.057,1.777 0.26,0.678 0.388,1.401 0.388,2.178 0,1.563 -0.48,2.882 -1.445,3.961 -0.964,1.084 -2.146,1.632 -3.552,1.632 H 9.162 c -1.518,0 -2.952,0.313 -4.304,0.954 -1.352,0.63 -2.534,1.516 -3.553,2.642 -1.019,1.121 -1.826,2.434 -2.416,3.922 -0.594,1.506 -0.888,3.111 -0.888,4.825 0,1.727 0.285,3.331 0.859,4.834 0.575,1.491 1.37,2.805 2.39,3.932 1.018,1.12 2.2,2.012 3.552,2.671 1.351,0.648 2.805,0.979 4.36,0.979 H 44.933 V 36.002 H 9.162 C 7.721,36.002 6.542,35.46 5.635,34.376 4.726,33.288 4.22,31.987 4.108,30.479 4.22,28.833 4.746,27.466 5.692,26.358 6.638,25.255 7.795,24.695 9.162,24.695 h 26.662 c 1.517,0 2.951,-0.328 4.305,-0.975 1.349,-0.666 2.523,-1.543 3.525,-2.645 1.001,-1.109 1.796,-2.41 2.388,-3.904 0.591,-1.494 0.889,-3.078 0.889,-4.762 0,-1.711 -0.286,-3.34 -0.86,-4.844 C 45.498,6.045 44.707,4.737 43.71,3.629 42.708,2.521 41.534,1.647 40.181,0.991 38.83,0.331 37.376,0 35.824,0 Z" /></g><g
           transform="translate(108.0947,24.5303)"
           id="g48"><path
             id="path50"
             style="fill:#8a8b8e;fill-opacity:1;fill-rule:nonzero;stroke:none"
             d="m 0,0 v 12.782 h -4.552 c -2.222,0 -4.299,0.455 -6.222,1.383 -1.922,0.916 -3.609,2.181 -5.051,3.777 -1.483,1.639 -2.639,3.524 -3.471,5.648 -0.835,2.13 -1.25,4.431 -1.25,6.889 v 12.102 h 6.109 V 30.479 c 0,-1.476 0.256,-2.886 0.775,-4.218 0.522,-1.324 1.227,-2.493 2.11,-3.496 0.89,-1.003 1.927,-1.799 3.113,-2.366 1.183,-0.572 2.46,-0.861 3.832,-0.861 h 14.941 c 1.334,0 2.6,0.289 3.804,0.861 1.202,0.567 2.259,1.35 3.167,2.338 0.905,0.983 1.619,2.123 2.136,3.437 0.519,1.307 0.777,2.702 0.777,4.184 V 42.581 H 26.33 V 30.479 c 0,-2.458 -0.419,-4.759 -1.252,-6.889 -0.83,-2.124 -1.991,-4.009 -3.469,-5.648 -1.447,-1.596 -3.129,-2.861 -5.055,-3.777 -1.927,-0.928 -4,-1.383 -6.22,-1.383 H 6.111 V 0 Z" /></g><g
           transform="translate(143.9751,24.5303)"
           id="g52"><path
             id="path54"
             style="fill:#8a8b8e;fill-opacity:1;fill-rule:nonzero;stroke:none"
             d="m 0,0 v 6.762 h 35.825 c 0.704,0 1.362,0.141 1.973,0.43 0.61,0.281 1.14,0.681 1.581,1.202 0.445,0.506 0.798,1.103 1.058,1.777 0.26,0.678 0.388,1.401 0.388,2.178 0,1.563 -0.482,2.882 -1.446,3.961 -0.962,1.084 -2.146,1.632 -3.554,1.632 H 9.167 c -1.522,0 -2.955,0.313 -4.304,0.954 -1.353,0.63 -2.539,1.516 -3.558,2.642 -1.014,1.121 -1.822,2.434 -2.415,3.922 -0.591,1.506 -0.889,3.111 -0.889,4.825 0,1.727 0.29,3.331 0.863,4.834 0.571,1.491 1.37,2.805 2.387,3.932 1.017,1.12 2.201,2.012 3.556,2.671 1.349,0.648 2.803,0.979 4.36,0.979 h 35.77 V 36.002 H 9.167 C 7.721,36.002 6.546,35.46 5.64,34.376 4.731,33.288 4.223,31.987 4.111,30.479 4.223,28.833 4.751,27.466 5.692,26.358 6.639,25.255 7.796,24.695 9.167,24.695 h 26.658 c 1.519,0 2.954,-0.328 4.305,-0.975 1.353,-0.666 2.528,-1.543 3.526,-2.645 1,-1.109 1.798,-2.41 2.392,-3.904 0.59,-1.494 0.883,-3.078 0.883,-4.762 0,-1.711 -0.285,-3.34 -0.858,-4.844 C 45.498,6.045 44.711,4.737 43.713,3.629 42.713,2.521 41.539,1.647 40.187,0.991 38.833,0.331 37.38,0 35.825,0 Z" /></g><g
           transform="translate(241.8398,60.415)"
           id="g56"><path
             id="path58"
             style="fill:#8a8b8e;fill-opacity:1;fill-rule:nonzero;stroke:none"
             d="m 0,0 h -20.773 v -35.885 h -6.052 V 0 H -47.599 V 6.696 H 0 Z" /></g><g
           transform="translate(256.7793,57.2188)"
           id="g60"><path
             id="path62"
             style="fill:#8a8b8e;fill-opacity:1;fill-rule:nonzero;stroke:none"
             d="M 0,0 C -0.887,-1.029 -1.59,-2.198 -2.111,-3.506 -2.627,-4.818 -2.89,-6.226 -2.89,-7.746 V -8.051 H 38.77 V -14.81 H -2.89 v -0.307 c 0,-1.479 0.263,-2.863 0.779,-4.172 0.521,-1.315 1.234,-2.46 2.139,-3.445 0.909,-0.986 1.963,-1.762 3.167,-2.331 1.201,-0.579 2.469,-0.862 3.805,-0.862 h 31.77 v -6.761 H 7 c -2.221,0 -4.305,0.472 -6.25,1.418 -1.944,0.946 -3.64,2.21 -5.083,3.807 -1.443,1.596 -2.582,3.467 -3.416,5.623 -0.829,2.151 -1.248,4.438 -1.248,6.847 v 7.247 c 0,2.463 0.425,4.753 1.274,6.879 0.853,2.133 2.002,4 3.446,5.602 1.443,1.597 3.138,2.85 5.084,3.768 C 2.75,9.428 4.812,9.893 7,9.893 H 38.77 V 3.196 H 7 C 5.59,3.196 4.296,2.904 3.113,2.332 1.926,1.76 0.889,0.977 0,0" /></g><g
           transform="translate(358.4751,24.5957)"
           id="g64"><path
             id="path66"
             style="fill:#8a8b8e;fill-opacity:1;fill-rule:nonzero;stroke:none"
             d="m 0,0 v 33.853 c 0,0.614 -0.242,1.096 -0.723,1.439 -0.481,0.347 -0.91,0.527 -1.278,0.527 h -0.5 c -0.372,0 -0.778,-0.162 -1.219,-0.5 -0.447,-0.328 -0.762,-0.753 -0.945,-1.286 l -1.556,-3.62 c -0.41,-0.946 -0.91,-2.127 -1.499,-3.539 -0.593,-1.407 -1.332,-3.142 -2.221,-5.19 -0.891,-2.048 -1.935,-4.467 -3.142,-7.252 -1.203,-2.775 -2.6,-6.019 -4.19,-9.7 -0.259,-0.572 -0.554,-1.15 -0.891,-1.722 -0.333,-0.575 -0.712,-1.084 -1.14,-1.537 -0.423,-0.446 -0.897,-0.819 -1.413,-1.102 -0.52,-0.292 -1.056,-0.436 -1.61,-0.436 h -0.89 c -1.407,0.084 -2.481,0.502 -3.222,1.261 -0.739,0.762 -1.462,1.915 -2.165,3.476 l -12.661,29.361 c -0.226,0.494 -0.399,0.838 -0.531,1.049 -0.132,0.204 -0.341,0.402 -0.636,0.607 -0.226,0.091 -0.484,0.13 -0.779,0.13 h -0.612 c -0.444,0 -0.888,-0.216 -1.333,-0.647 -0.444,-0.428 -0.665,-0.873 -0.665,-1.319 V 0 h -6.11 v 34.094 c 0,1.06 0.211,2.09 0.638,3.075 0.423,0.985 0.997,1.861 1.724,2.639 0.721,0.783 1.553,1.406 2.495,1.879 0.946,0.469 1.935,0.744 2.974,0.829 l 0.889,0.059 c 1.074,0 2.036,-0.186 2.887,-0.548 0.444,-0.163 0.898,-0.422 1.364,-0.771 0.46,-0.353 0.894,-0.753 1.302,-1.202 0.408,-0.449 0.77,-0.912 1.081,-1.376 0.316,-0.48 0.532,-0.898 0.643,-1.262 l 0.332,-0.799 c 2.109,-4.879 4.204,-9.752 6.276,-14.632 2.073,-4.874 4.167,-9.744 6.276,-14.617 l 0.111,-0.241 12.777,29.611 c 0.367,0.862 0.876,1.749 1.523,2.674 0.649,0.919 1.418,1.645 2.307,2.182 0.518,0.283 1.102,0.517 1.749,0.705 0.645,0.18 1.287,0.276 1.918,0.276 l 0.833,-0.059 c 0.96,0 1.907,-0.26 2.828,-0.766 0.929,-0.518 1.759,-1.169 2.501,-1.973 0.74,-0.792 1.342,-1.689 1.805,-2.672 0.464,-0.982 0.713,-1.951 0.753,-2.885 L 6.055,0 Z" /></g><g
           transform="translate(373.6919,24.5303)"
           id="g68"><path
             id="path70"
             style="fill:#8a8b8e;fill-opacity:1;fill-rule:nonzero;stroke:none"
             d="m 0,0 v 6.762 h 35.824 c 0.704,0 1.359,0.141 1.972,0.43 0.611,0.281 1.139,0.681 1.58,1.202 0.447,0.506 0.798,1.103 1.058,1.777 0.257,0.678 0.389,1.401 0.389,2.178 0,1.563 -0.483,2.882 -1.447,3.961 -0.963,1.084 -2.145,1.632 -3.552,1.632 H 9.164 c -1.519,0 -2.953,0.313 -4.306,0.954 -1.351,0.63 -2.533,1.516 -3.554,2.642 -1.018,1.121 -1.825,2.434 -2.413,3.922 C -1.707,26.966 -2,28.571 -2,30.285 c 0,1.727 0.286,3.331 0.861,4.834 0.573,1.491 1.368,2.805 2.391,3.932 1.017,1.12 2.199,2.012 3.553,2.671 1.35,0.648 2.806,0.979 4.359,0.979 H 44.935 V 36.002 H 9.164 C 7.721,36.002 6.547,35.46 5.639,34.376 4.729,33.288 4.221,31.987 4.111,30.479 4.221,28.833 4.75,27.466 5.693,26.358 6.637,25.255 7.791,24.695 9.164,24.695 h 26.66 c 1.52,0 2.955,-0.328 4.307,-0.975 1.347,-0.666 2.522,-1.543 3.524,-2.645 1,-1.109 1.796,-2.41 2.387,-3.904 0.592,-1.494 0.893,-3.078 0.893,-4.762 0,-1.711 -0.292,-3.34 -0.863,-4.844 C 45.499,6.045 44.712,4.737 43.711,3.629 42.712,2.521 41.537,1.647 40.183,0.991 38.834,0.331 37.377,0 35.824,0 Z" /></g><g
           transform="translate(454.6694,29.6953)"
           id="g72"><path
             id="path74"
             style="fill:#8a8b8e;fill-opacity:1;fill-rule:nonzero;stroke:none"
             d="m 0,0 c -1.481,1.639 -2.639,3.518 -3.47,5.647 -0.835,2.133 -1.25,4.431 -1.25,6.883 v 7.247 c 0,2.422 0.425,4.708 1.273,6.85 0.854,2.156 2.005,4.029 3.447,5.632 1.447,1.596 3.137,2.849 5.083,3.767 1.945,0.925 4.029,1.39 6.249,1.39 H 43.044 V 30.72 H 11.332 C 9.963,30.72 8.676,30.428 7.471,29.855 6.267,29.283 5.223,28.494 4.333,27.494 3.444,26.488 2.73,25.319 2.193,23.988 1.656,22.653 1.391,21.259 1.391,19.777 V 12.53 C 1.391,11.061 1.645,9.65 2.168,8.325 2.685,6.997 3.388,5.826 4.277,4.819 5.167,3.816 6.205,3.027 7.387,2.458 8.571,1.88 9.85,1.597 11.22,1.597 H 43.044 V -5.165 H 11.332 c -2.22,0 -4.304,0.46 -6.249,1.385 C 3.137,-2.861 1.447,-1.596 0,0" /></g><g
           transform="translate(515.3789,42.2256)"
           id="g76"><path
             id="path78"
             style="fill:#8a8b8e;fill-opacity:1;fill-rule:nonzero;stroke:none"
             d="m 0,0 c 0,-1.519 0.257,-2.939 0.774,-4.265 0.518,-1.338 1.223,-2.491 2.111,-3.476 0.889,-0.986 1.933,-1.762 3.136,-2.331 1.205,-0.578 2.491,-0.862 3.864,-0.862 h 26.988 c 1.37,0 2.656,0.284 3.864,0.862 1.2,0.569 2.257,1.345 3.162,2.331 0.908,0.985 1.622,2.138 2.136,3.476 0.523,1.326 0.783,2.746 0.783,4.265 v 7.247 c 0,1.482 -0.26,2.876 -0.783,4.211 -0.514,1.331 -1.228,2.5 -2.136,3.506 -0.905,1 -1.962,1.789 -3.162,2.361 -1.208,0.572 -2.494,0.864 -3.864,0.864 H 9.885 C 8.512,18.189 7.226,17.897 6.021,17.325 4.818,16.753 3.774,15.964 2.885,14.964 1.997,13.958 1.292,12.789 0.774,11.458 0.257,10.123 0,8.729 0,7.247 Z m 9.885,-17.695 c -2.226,0 -4.307,0.46 -6.249,1.384 -1.943,0.919 -3.636,2.185 -5.078,3.781 -1.449,1.596 -2.587,3.47 -3.419,5.627 -0.832,2.147 -1.246,4.451 -1.246,6.903 v 7.247 c 0,2.422 0.414,4.708 1.246,6.85 0.832,2.156 1.97,4.029 3.419,5.632 1.442,1.596 3.135,2.849 5.078,3.767 1.942,0.925 4.023,1.39 6.249,1.39 h 26.988 c 2.223,0 4.304,-0.465 6.254,-1.39 1.942,-0.918 3.634,-2.171 5.081,-3.767 1.439,-1.603 2.581,-3.476 3.414,-5.632 0.835,-2.142 1.251,-4.428 1.251,-6.85 V 0 c 0,-2.452 -0.416,-4.756 -1.251,-6.903 -0.833,-2.157 -1.975,-4.031 -3.414,-5.627 -1.447,-1.596 -3.139,-2.862 -5.081,-3.781 -1.95,-0.924 -4.031,-1.384 -6.254,-1.384 z" /></g><g
           transform="translate(616.457,25.0273)"
           id="g80"><path
             id="path82"
             style="fill:#8a8b8e;fill-opacity:1;fill-rule:nonzero;stroke:none"
             d="m 0,0 c -0.517,0.237 -0.997,0.554 -1.444,0.922 -0.443,0.367 -0.906,0.855 -1.388,1.469 -1.962,2.5 -4.003,5.138 -6.136,7.924 -2.133,2.792 -4.277,5.594 -6.439,8.419 -2.171,2.82 -4.318,5.62 -6.448,8.386 -2.13,2.765 -4.159,5.418 -6.079,7.958 -0.444,0.493 -1,0.735 -1.667,0.735 -0.595,0 -1.122,-0.163 -1.586,-0.489 -0.463,-0.331 -0.711,-0.844 -0.747,-1.536 V -0.497 h -6.051 v 34.773 l 0.054,0.187 c 0.078,1.266 0.362,2.416 0.859,3.433 0.5,1.031 1.15,1.892 1.945,2.594 0.798,0.69 1.68,1.226 2.665,1.594 0.98,0.367 1.974,0.548 2.971,0.548 1.179,0 2.324,-0.253 3.422,-0.765 1.087,-0.513 2.041,-1.368 2.855,-2.549 4.183,-5.451 8.353,-10.873 12.497,-16.283 C -6.569,17.632 -2.384,12.183 1.833,6.695 2.018,6.487 2.267,6.307 2.584,6.141 2.902,5.976 3.206,5.894 3.503,5.894 c 0.515,0 1,0.187 1.442,0.56 0.443,0.364 0.726,0.853 0.833,1.468 v 34.282 h 6.11 V 7.431 C 11.778,6.156 11.46,5.012 10.942,3.994 10.423,2.97 9.789,2.084 9.029,1.346 8.27,0.61 7.405,0.048 6.445,-0.335 5.48,-0.727 4.478,-0.925 3.448,-0.925 2.888,-0.925 2.307,-0.855 1.7,-0.708 1.087,-0.561 0.523,-0.329 0,0" /></g><g
           transform="translate(638.5645,24.5303)"
           id="g84"><path
             id="path86"
             style="fill:#8a8b8e;fill-opacity:1;fill-rule:nonzero;stroke:none"
             d="m 0,0 v 6.762 h 35.824 c 0.702,0 1.362,0.141 1.971,0.43 0.61,0.281 1.142,0.681 1.587,1.202 0.439,0.506 0.795,1.103 1.052,1.777 0.257,0.678 0.39,1.401 0.39,2.178 0,1.563 -0.485,2.882 -1.442,3.961 -0.966,1.084 -2.148,1.632 -3.558,1.632 H 9.165 c -1.523,0 -2.951,0.313 -4.307,0.954 -1.349,0.63 -2.534,1.516 -3.554,2.642 -1.018,1.121 -1.822,2.434 -2.413,3.922 C -1.708,26.966 -2,28.571 -2,30.285 c 0,1.727 0.286,3.331 0.861,4.834 0.573,1.491 1.37,2.805 2.388,3.932 1.02,1.12 2.202,2.012 3.555,2.671 1.349,0.648 2.806,0.979 4.361,0.979 H 44.934 V 36.002 H 9.165 C 7.717,36.002 6.541,35.46 5.639,34.376 4.729,33.288 4.223,31.987 4.11,30.479 4.223,28.833 4.746,27.466 5.693,26.358 6.639,25.255 7.795,24.695 9.165,24.695 h 26.659 c 1.518,0 2.953,-0.328 4.298,-0.975 1.356,-0.666 2.531,-1.543 3.531,-2.645 1.003,-1.109 1.795,-2.41 2.388,-3.904 0.595,-1.494 0.893,-3.078 0.893,-4.762 0,-1.711 -0.289,-3.34 -0.859,-4.844 C 45.494,6.045 44.711,4.737 43.711,3.629 42.711,2.521 41.535,1.647 40.183,0.991 38.833,0.331 37.376,0 35.824,0 Z" /></g><g
           transform="translate(700.4346,29.6953)"
           id="g88"><path
             id="path90"
             style="fill:#8a8b8e;fill-opacity:1;fill-rule:nonzero;stroke:none"
             d="M 0,0 C -1.479,1.639 -2.639,3.518 -3.471,5.647 -4.301,7.78 -4.72,10.078 -4.72,12.53 V 37.416 H 1.391 V 12.53 C 1.391,11.061 1.647,9.65 2.165,8.325 2.683,6.997 3.391,5.826 4.277,4.819 5.165,3.816 6.202,3.027 7.394,2.458 8.575,1.88 9.85,1.597 11.22,1.597 h 17.159 c 1.335,0 2.601,0.283 3.809,0.861 1.203,0.569 2.257,1.346 3.166,2.331 0.907,0.985 1.621,2.13 2.135,3.445 0.517,1.309 0.775,2.694 0.775,4.172 v 25.01 h 6.115 V 12.53 c 0,-2.452 -0.416,-4.75 -1.254,-6.883 C 42.298,3.518 41.137,1.639 39.656,0 c -1.444,-1.596 -3.127,-2.861 -5.052,-3.78 -1.927,-0.925 -4,-1.385 -6.225,-1.385 H 11.277 c -2.221,0 -4.297,0.46 -6.221,1.385 C 3.127,-2.861 1.442,-1.596 0,0" /></g><g
           transform="translate(761.0303,67.1113)"
           id="g92"><path
             id="path94"
             style="fill:#8a8b8e;fill-opacity:1;fill-rule:nonzero;stroke:none"
             d="m 0,0 v -24.819 c 0,-1.561 0.258,-3 0.78,-4.308 0.515,-1.31 1.22,-2.445 2.108,-3.439 0.889,-0.98 1.927,-1.769 3.112,-2.365 1.186,-0.587 2.48,-0.888 3.891,-0.888 h 31.713 v -6.762 H 9.891 c -2.226,0 -4.298,0.46 -6.226,1.385 -1.928,0.919 -3.627,2.196 -5.107,3.841 -1.448,1.595 -2.58,3.466 -3.416,5.623 -0.832,2.15 -1.248,4.455 -1.248,6.913 l 0,24.819 z" /></g><g
           transform="translate(843.7305,60.415)"
           id="g96"><path
             id="path98"
             style="fill:#8a8b8e;fill-opacity:1;fill-rule:nonzero;stroke:none"
             d="m 0,0 h -20.771 v -35.885 h -6.053 V 0 H -47.596 V 6.696 H 0 Z" /></g><path
           id="path100"
           style="fill:#8a8b8e;fill-opacity:1;fill-rule:nonzero;stroke:none"
           d="m 851.562,67.111 h 6.11 V 24.53 h -6.11 z" /><g
           transform="translate(904.7139,25.0273)"
           id="g102"><path
             id="path104"
             style="fill:#8a8b8e;fill-opacity:1;fill-rule:nonzero;stroke:none"
             d="m 0,0 c -0.523,0.237 -1,0.554 -1.442,0.922 -0.452,0.367 -0.909,0.855 -1.394,1.469 -1.962,2.5 -4.006,5.138 -6.133,7.924 -2.133,2.792 -4.28,5.594 -6.445,8.419 -2.167,2.82 -4.315,5.62 -6.44,8.386 -2.129,2.765 -4.161,5.418 -6.083,7.958 -0.442,0.493 -1,0.735 -1.67,0.735 -0.587,0 -1.119,-0.163 -1.581,-0.489 -0.463,-0.331 -0.711,-0.844 -0.747,-1.536 V -0.497 h -6.057 v 34.773 l 0.06,0.187 c 0.073,1.266 0.362,2.416 0.859,3.433 0.497,1.031 1.144,1.892 1.942,2.594 0.795,0.69 1.686,1.226 2.668,1.594 0.983,0.367 1.971,0.548 2.968,0.548 1.188,0 2.324,-0.253 3.419,-0.765 1.093,-0.513 2.044,-1.368 2.858,-2.549 4.183,-5.451 8.351,-10.873 12.495,-16.283 C -6.575,17.632 -2.388,12.183 1.832,6.695 2.017,6.487 2.266,6.307 2.583,6.141 2.896,5.976 3.202,5.894 3.494,5.894 c 0.526,0 1.008,0.187 1.45,0.56 0.446,0.364 0.72,0.853 0.827,1.468 v 34.282 h 6.113 V 7.431 C 11.774,6.156 11.462,5.012 10.941,3.994 10.419,2.97 9.78,2.084 9.025,1.346 8.269,0.61 7.404,0.048 6.441,-0.335 c -0.962,-0.392 -1.959,-0.59 -3,-0.59 -0.551,0 -1.141,0.07 -1.748,0.217 C 1.086,-0.561 0.517,-0.329 0,0" /></g><g
           transform="translate(941.6475,24.5303)"
           id="g106"><path
             id="path108"
             style="fill:#8a8b8e;fill-opacity:1;fill-rule:nonzero;stroke:none"
             d="m 0,0 c -2.186,0 -4.24,0.46 -6.168,1.385 -1.922,0.919 -3.607,2.184 -5.055,3.78 -1.442,1.597 -2.59,3.471 -3.439,5.627 -0.853,2.147 -1.283,4.451 -1.283,6.903 v 7.247 c 0,2.422 0.419,4.696 1.257,6.823 0.827,2.123 1.968,3.99 3.413,5.587 1.442,1.608 3.125,2.874 5.052,3.81 1.928,0.942 4,1.419 6.223,1.419 H 23.106 V 35.885 H 0 c -1.33,0 -2.604,-0.292 -3.804,-0.864 -1.205,-0.573 -2.249,-1.356 -3.141,-2.333 -0.885,-0.984 -1.599,-2.131 -2.133,-3.445 -0.541,-1.312 -0.81,-2.699 -0.81,-4.174 v -7.374 c 0,-1.469 0.26,-2.88 0.781,-4.205 C -8.59,12.162 -7.885,10.991 -7,9.984 -6.11,8.981 -5.072,8.192 -3.888,7.623 -2.7,7.045 -1.442,6.762 -0.107,6.762 h 17.878 c 1.338,0 2.596,0.283 3.804,0.861 1.202,0.569 2.251,1.346 3.142,2.331 0.892,0.985 1.603,2.13 2.138,3.445 0.535,1.309 0.801,2.694 0.801,4.172 V 18.06 H 11.052 v 6.761 h 22.719 v -7.126 c 0,-2.409 -0.418,-4.696 -1.256,-6.846 C 31.687,8.692 30.549,6.821 29.101,5.226 27.656,3.629 25.965,2.364 24.022,1.419 22.081,0.473 19.991,0 17.771,0 Z" /></g></g></g></g></svg>